<?xml version="1.0" standalone="no"?>
<!DOCTYPE svg PUBLIC "-//W3C//DTD SVG 20010904//EN"
 "http://www.w3.org/TR/2001/REC-SVG-20010904/DTD/svg10.dtd">
<svg version="1.0" xmlns="http://www.w3.org/2000/svg"
 width="2038.000000pt" height="359.000000pt" viewBox="0 0 2038.000000 359.000000"
 preserveAspectRatio="xMidYMid meet">

<g transform="translate(0.000000,359.000000) scale(0.100000,-0.100000)"
fill="#000000" stroke="none">
<path d="M6475 3580 c-295 -42 -585 -195 -849 -450 -313 -301 -549 -702 -678
-1149 -210 -730 -68 -1440 351 -1751 297 -219 679 -232 1070 -34 378 190 722
564 946 1029 37 75 65 138 63 140 -2 2 -42 19 -90 38 l-88 35 -68 -136 c-121
-240 -225 -386 -402 -563 -180 -180 -378 -303 -586 -365 -119 -35 -294 -44
-408 -20 -330 68 -559 339 -643 761 -28 138 -25 470 5 627 124 654 525 1227
1025 1463 223 106 451 126 668 59 13 -4 27 22 68 120 28 68 51 131 51 139 0
14 -30 25 -130 47 -66 14 -236 20 -305 10z"/>
<path d="M1081 3133 c-11 -22 -99 -238 -634 -1563 -96 -239 -230 -570 -297
-735 -67 -165 -125 -308 -127 -317 -5 -17 45 -18 949 -18 l955 0 111 273 c61
149 156 385 212 522 114 282 378 934 594 1470 80 197 146 365 146 372 0 11
-177 13 -950 13 -894 0 -950 -1 -959 -17z m299 -1085 l0 -663 158 240 c87 132
242 366 343 520 102 154 228 344 280 423 l94 142 178 0 c140 0 177 -3 171 -12
-15 -27 -367 -560 -947 -1436 l-220 -332 -176 2 -176 3 -3 875 c-1 481 0 881
3 888 3 9 43 12 150 12 l145 0 0 -662z"/>
<path d="M3177 2788 c-80 -200 -187 -464 -237 -588 -50 -124 -165 -407 -255
-630 -90 -223 -224 -555 -299 -737 l-134 -333 957 0 957 0 92 228 c50 125 132
328 183 452 50 124 152 376 226 560 75 184 189 466 253 625 279 689 310 766
310 775 0 6 -354 10 -954 10 l-954 0 -145 -362z m1633 -87 c0 -6 -25 -73 -57
-150 l-56 -141 -277 0 -276 0 -82 -202 c-44 -112 -174 -432 -287 -713 -114
-280 -211 -522 -217 -537 l-10 -28 -159 0 c-87 0 -159 4 -159 8 0 4 62 163
139 353 280 694 410 1015 430 1062 12 27 21 51 21 53 0 2 -121 4 -270 4 -197
0 -270 3 -270 11 0 7 25 74 56 150 l57 139 708 0 c439 0 709 -4 709 -9z"/>
<path d="M18411 3141 c-8 -5 -20 -7 -27 -4 -19 7 -120 -23 -190 -57 -81 -40
-140 -92 -169 -150 -38 -75 -76 -181 -68 -193 3 -5 1 -7 -4 -4 -6 4 -14 0 -17
-9 -3 -8 -2 -12 4 -9 14 9 12 -1 -3 -17 -21 -21 -48 -96 -37 -103 6 -3 10 -12
9 -18 0 -9 -2 -9 -6 1 -10 24 -21 11 -43 -50 -12 -35 -25 -70 -28 -78 -3 -8
-4 -21 -3 -29 1 -7 -2 -10 -7 -7 -5 3 -12 -2 -15 -12 -3 -9 -12 -35 -21 -57
-14 -34 -14 -37 -1 -21 8 11 15 15 15 9 0 -5 -9 -18 -20 -28 -10 -9 -24 -34
-31 -54 -6 -20 -21 -58 -34 -86 -13 -27 -40 -93 -60 -145 -21 -52 -41 -100
-46 -106 -5 -6 -10 -23 -11 -38 -1 -14 -6 -26 -10 -26 -4 0 -8 -5 -8 -10 0 -7
68 -10 199 -10 l198 2 28 61 c15 34 28 72 29 84 0 11 4 19 8 17 10 -6 20 34
12 47 -4 7 -3 9 3 6 6 -4 20 19 33 56 23 64 43 112 67 159 7 14 13 35 13 46 0
12 5 24 11 27 6 4 8 14 5 22 -3 8 -1 11 4 8 5 -3 12 7 16 22 4 15 15 45 26 66
11 22 16 47 13 60 -5 17 -4 19 4 7 11 -15 12 -12 15 23 1 6 5 15 11 19 13 10
35 -11 28 -28 -3 -8 0 -14 7 -14 6 0 9 -4 5 -9 -6 -10 38 -154 45 -147 3 2 6
-9 6 -26 1 -17 7 -34 14 -38 7 -4 10 -12 6 -18 -5 -8 25 -108 51 -172 3 -8 7
-19 7 -25 5 -33 32 -98 50 -117 12 -12 20 -24 18 -25 -4 -5 28 -63 34 -63 4 0
3 7 0 16 -3 9 -2 12 5 9 5 -4 7 -15 4 -25 -4 -11 3 -23 19 -34 20 -13 52 -16
154 -16 71 0 132 3 136 7 3 4 16 8 27 10 50 8 318 213 311 237 -2 6 0 8 4 4 9
-10 36 11 28 23 -3 5 3 6 12 2 13 -5 16 -2 12 9 -4 10 -1 15 10 14 10 0 16 5
14 14 -2 8 0 12 4 8 10 -11 35 12 27 25 -3 6 -1 7 6 3 12 -8 43 17 36 28 -3 3
-2 4 1 1 10 -7 94 66 88 76 -3 5 0 8 8 7 7 -2 12 3 10 10 -1 8 2 11 7 7 6 -3
19 2 29 12 10 10 32 29 48 43 98 85 169 154 166 162 -1 5 1 7 6 4 5 -3 18 3
30 14 30 28 36 8 11 -35 -16 -27 -20 -45 -16 -73 5 -30 4 -33 -5 -18 -9 16
-18 0 -58 -101 -26 -66 -55 -136 -63 -154 -30 -66 -107 -266 -107 -278 0 -7
-7 -19 -15 -27 -8 -9 -15 -19 -15 -24 0 -5 93 -9 206 -9 176 0 205 2 200 14
-3 8 -1 15 5 15 6 0 8 7 5 16 -3 8 -2 12 3 9 5 -3 12 5 16 17 3 13 12 39 20
58 18 48 28 74 30 80 0 3 8 21 17 40 41 84 128 312 128 332 0 12 3 18 6 15 7
-6 54 100 94 208 10 28 36 92 58 143 22 50 38 92 35 92 -3 0 -1 6 5 13 5 6 17
33 26 59 14 43 14 49 -1 80 -27 52 -93 97 -173 115 -51 12 -181 7 -226 -7 -46
-15 -147 -70 -140 -77 2 -3 13 0 23 6 15 7 20 7 20 -3 0 -8 -12 -12 -31 -10
-35 2 -63 -17 -156 -102 -33 -31 -57 -61 -53 -67 4 -6 1 -7 -6 -3 -8 5 -37
-16 -79 -56 -37 -35 -98 -90 -137 -123 -38 -33 -76 -67 -85 -75 -9 -8 -47 -42
-85 -75 -107 -93 -127 -114 -119 -127 4 -7 3 -8 -4 -4 -14 8 -53 -24 -45 -37
3 -6 1 -7 -4 -4 -13 8 -36 -17 -25 -28 4 -5 1 -5 -6 0 -9 5 -26 -4 -48 -26
-20 -20 -37 -29 -42 -23 -5 5 -19 47 -32 94 -12 47 -34 123 -47 170 -14 47
-29 105 -35 129 -6 26 -13 39 -18 31 -4 -7 -7 0 -7 17 0 84 -73 294 -121 350
-35 40 -205 79 -241 54z m248 -85 c9 -10 8 -15 -2 -19 -8 -3 -13 3 -13 14 0
23 0 23 15 5z m1081 -60 c0 -2 -8 -10 -17 -17 -16 -13 -17 -12 -4 4 13 16 21
21 21 13z m-50 -40 c0 -2 -8 -10 -17 -17 -16 -13 -17 -12 -4 4 13 16 21 21 21
13z m503 -327 c-8 -8 -13 -7 -18 2 -5 8 -4 10 3 5 7 -4 12 -2 12 5 0 7 3 9 7
6 4 -4 2 -12 -4 -18z m-920 -44 c-3 -9 -8 -14 -10 -11 -3 3 -2 9 2 15 9 16 15
13 8 -4z m357 -119 c0 -2 -7 -9 -15 -16 -13 -11 -14 -10 -9 4 5 14 24 23 24
12z m-690 -224 c0 -4 -9 -8 -20 -8 -11 0 -20 4 -20 8 0 4 9 8 20 8 11 0 20 -4
20 -8z m730 -36 c0 -3 -4 -8 -10 -11 -5 -3 -10 -1 -10 4 0 6 5 11 10 11 6 0
10 -2 10 -4z m-456 -92 c3 -8 2 -12 -4 -9 -6 3 -10 10 -10 16 0 14 7 11 14 -7z
m653 -226 c-3 -8 -6 -5 -6 6 -1 11 2 17 5 13 3 -3 4 -12 1 -19z"/>
<path d="M8039 3107 c-7 -17 -12 -38 -12 -44 0 -7 -4 -13 -10 -13 -6 0 -8 -3
-4 -6 3 -4 -1 -13 -9 -22 -9 -8 -13 -23 -11 -34 3 -11 1 -16 -6 -11 -6 4 -8
-2 -5 -15 4 -12 2 -20 -2 -17 -5 3 -16 -16 -25 -42 -9 -27 -21 -56 -26 -65 -5
-10 -9 -20 -9 -23 0 -3 291 -5 648 -5 356 0 652 -4 659 -8 23 -15 19 -40 -17
-127 -5 -11 -19 -45 -30 -75 -12 -30 -26 -63 -31 -73 -5 -10 -7 -22 -4 -27 4
-6 1 -10 -5 -10 -6 0 -9 -4 -6 -9 4 -5 1 -11 -5 -13 -6 -2 -12 -15 -12 -30 -1
-14 -5 -24 -8 -22 -9 5 -19 -21 -19 -47 0 -10 -4 -19 -9 -19 -5 0 -12 -12 -16
-27 -12 -50 -55 -132 -75 -143 -22 -12 -934 -14 -928 -2 2 4 10 21 17 37 7 17
19 41 26 55 29 56 64 161 59 178 -5 13 -4 14 4 3 8 -11 11 -9 17 8 3 11 3 26
-1 32 -4 7 -3 9 4 5 6 -3 15 9 22 31 6 21 18 52 26 70 8 17 14 36 14 42 0 8
-63 11 -205 11 -168 0 -205 -2 -205 -14 0 -7 -7 -27 -15 -42 -8 -16 -15 -39
-15 -51 0 -13 -4 -23 -9 -23 -5 0 -13 -15 -16 -32 -4 -18 -10 -35 -14 -38 -7
-6 -52 -113 -55 -132 -1 -7 -5 -19 -9 -25 -5 -7 -5 -18 -1 -25 4 -6 3 -8 -3
-5 -6 4 -27 -35 -50 -93 -22 -54 -35 -96 -29 -93 6 4 4 -2 -5 -13 -15 -17 -30
-51 -28 -64 0 -3 -13 -32 -29 -65 -40 -80 -47 -106 -30 -103 7 2 16 8 20 13 5
6 8 5 8 -2 0 -10 167 -13 760 -13 710 0 762 1 787 17 15 10 24 12 20 6 -6 -9
-3 -11 7 -7 9 3 14 9 12 13 -2 3 6 7 19 7 27 2 126 65 119 76 -3 4 1 5 8 3 18
-7 108 79 108 103 0 10 5 23 12 30 9 9 9 18 0 37 -16 35 -15 46 2 16 13 -23
13 -23 29 18 9 22 14 48 11 58 -4 13 -3 15 4 5 7 -11 10 -10 15 5 2 10 12 35
21 56 12 28 13 37 4 31 -8 -4 -6 0 3 12 26 31 42 82 35 111 -5 24 -5 25 5 10
10 -16 16 -8 45 64 20 48 32 92 28 104 -4 15 -3 16 4 6 8 -11 11 -9 17 10 3
13 14 42 24 64 44 97 51 117 46 126 -4 5 -1 9 5 9 7 0 9 7 6 17 -4 10 -4 14 0
10 13 -13 55 106 50 140 -5 33 -10 41 -56 92 -57 64 -11 61 -873 61 l-785 0
-13 -33z m1699 -182 c-3 -3 -9 2 -12 12 -6 14 -5 15 5 6 7 -7 10 -15 7 -18z
m-1748 -13 c0 -5 -7 -17 -15 -28 -14 -18 -14 -17 -4 9 12 27 19 34 19 19z
m-263 -644 c-3 -8 -6 -5 -6 6 -1 11 2 17 5 13 3 -3 4 -12 1 -19z m1308 -88 c3
-5 1 -10 -4 -10 -6 0 -11 5 -11 10 0 6 2 10 4 10 3 0 8 -4 11 -10z m336 -143
c-10 -9 -11 -8 -5 6 3 10 9 15 12 12 3 -3 0 -11 -7 -18z m-1778 -92 c-3 -9 -8
-14 -10 -11 -3 3 -2 9 2 15 9 16 15 13 8 -4z"/>
<path d="M10134 3118 c-4 -13 -7 -30 -5 -38 2 -8 -1 -12 -5 -7 -7 7 -21 -23
-47 -103 -6 -19 -15 -38 -20 -41 -5 -4 -6 -12 -3 -18 4 -6 3 -11 -2 -11 -8 0
-42 -75 -42 -93 0 -4 92 -7 204 -7 l205 0 24 53 c44 93 58 131 52 144 -2 8 -1
12 4 9 5 -3 18 18 29 47 11 28 23 60 27 70 7 16 -7 17 -203 17 -210 0 -211 0
-218 -22z m-17 -110 c-3 -8 -6 -5 -6 6 -1 11 2 17 5 13 3 -3 4 -12 1 -19z"/>
<path d="M10992 3121 c-23 -9 -39 -21 -35 -26 4 -4 3 -5 -4 -1 -25 14 -198
-116 -189 -141 3 -8 1 -11 -4 -8 -13 8 -63 -103 -56 -122 3 -8 1 -11 -4 -8 -6
3 -11 1 -11 -4 -1 -6 -2 -15 -3 -19 0 -5 -11 -28 -23 -53 -22 -45 -65 -155
-78 -199 -4 -14 -12 -30 -17 -37 -5 -7 -7 -17 -3 -23 3 -5 2 -10 -4 -10 -5 0
-19 -26 -31 -57 -12 -31 -32 -80 -45 -108 -13 -30 -21 -63 -19 -81 3 -23 2
-25 -4 -9 -9 19 -9 19 -16 -2 -4 -13 -4 -28 0 -35 4 -7 4 -10 -1 -6 -13 12
-73 -146 -69 -181 7 -61 40 -103 106 -137 l47 -24 776 0 c539 0 775 3 775 11
0 5 4 8 9 4 5 -3 34 6 63 20 133 64 181 112 237 242 23 54 43 105 45 113 1 8
8 25 15 38 7 13 10 30 7 38 -3 9 -1 12 4 9 12 -8 33 43 24 57 -5 7 -2 8 5 4 8
-5 11 -3 10 5 -1 8 4 28 11 44 7 17 14 61 15 98 2 63 0 70 -26 95 -16 15 -39
30 -51 34 -13 3 -258 6 -544 7 -566 1 -544 3 -548 -53 0 -13 -4 -22 -7 -20
-10 6 -20 -26 -13 -38 4 -6 -1 -17 -11 -24 -15 -11 -16 -16 -5 -29 11 -13 10
-15 -2 -10 -11 4 -18 -2 -23 -22 -3 -15 -5 -28 -3 -28 2 0 -7 -13 -19 -29 -46
-58 -55 -57 326 -56 192 1 360 -2 374 -5 36 -9 50 -46 31 -84 -9 -17 -12 -36
-8 -42 4 -7 3 -9 -3 -6 -6 4 -16 0 -23 -8 -11 -13 -86 -15 -551 -15 -482 0
-539 2 -539 16 0 15 32 101 51 137 5 10 7 22 4 27 -4 6 -1 10 5 10 6 0 9 4 6
9 -4 5 -1 11 5 13 6 2 12 15 12 30 1 14 5 24 9 22 8 -5 28 52 21 60 -4 3 -2 6
4 6 6 0 14 12 18 27 3 15 15 44 25 66 10 21 16 46 13 55 -3 9 -2 14 2 9 11 -9
37 51 28 66 -4 6 -1 7 7 2 10 -6 12 -3 8 13 -4 12 -2 20 3 17 4 -3 11 6 15 20
4 17 13 25 28 25 11 0 362 0 780 0 l758 1 -4 28 c-3 18 0 27 7 25 14 -6 36 49
42 104 4 35 -1 51 -22 84 -16 24 -32 38 -40 34 -9 -3 -12 0 -9 9 4 8 -6 20
-25 30 -28 14 -116 15 -813 14 -715 -1 -787 -2 -826 -18z m1 -586 c-3 -9 -8
-14 -10 -11 -3 3 -2 9 2 15 9 16 15 13 8 -4z m1504 -87 c-3 -8 -6 -5 -6 6 -1
11 2 17 5 13 3 -3 4 -12 1 -19z"/>
<path d="M13081 3131 c-15 -9 -39 -68 -48 -113 -3 -16 -9 -28 -13 -28 -5 0
-22 -35 -38 -77 -17 -43 -33 -86 -37 -96 -7 -16 5 -17 206 -15 l214 3 -2 23
c-2 13 1 21 6 17 11 -6 25 31 16 44 -3 6 0 13 7 18 18 11 61 113 60 141 0 13
3 21 6 17 5 -5 32 49 32 66 0 11 -391 11 -409 0z m321 -183 c-8 -8 -9 -4 -5
13 4 13 8 18 11 10 2 -7 -1 -18 -6 -23z m-409 -135 c-7 -2 -21 -2 -30 0 -10 3
-4 5 12 5 17 0 24 -2 18 -5z"/>
<path d="M13937 3126 c-15 -7 -24 -16 -20 -21 5 -4 2 -5 -4 -1 -12 6 -53 -11
-91 -38 -11 -8 -11 -11 0 -18 9 -6 7 -8 -7 -4 -22 6 -80 -36 -68 -48 4 -4 0
-4 -9 -1 -11 4 -20 -1 -29 -17 -6 -13 -15 -25 -18 -28 -4 -3 -22 -41 -40 -85
-18 -44 -44 -106 -58 -139 -14 -32 -26 -69 -27 -81 0 -13 -4 -21 -8 -19 -10 6
-20 -34 -12 -47 4 -7 3 -9 -3 -6 -6 4 -18 -14 -28 -41 -10 -26 -23 -60 -31
-77 -41 -93 -73 -188 -68 -197 5 -7 2 -8 -6 -3 -10 6 -12 3 -8 -13 4 -12 3
-20 -1 -18 -3 2 -15 -17 -25 -42 -11 -26 -30 -71 -43 -100 -19 -41 -23 -64
-19 -95 7 -47 49 -105 92 -126 16 -8 37 -18 47 -23 9 -4 365 -8 791 -8 599 0
776 3 783 13 20 25 42 96 33 102 -6 3 -10 12 -9 18 0 9 2 9 6 0 2 -7 8 -13 13
-13 13 0 33 68 24 81 -4 7 -3 9 3 6 13 -8 44 69 37 91 -5 13 -4 14 4 4 7 -11
10 -10 16 3 3 9 6 21 6 26 0 5 -263 9 -653 9 -509 0 -657 3 -670 13 -18 13
-18 33 2 80 6 16 8 33 5 39 -4 6 -2 8 3 5 6 -4 13 2 16 13 3 11 1 23 -4 26 -5
3 -9 11 -9 17 0 7 4 6 10 -3 9 -13 11 -13 20 0 5 8 10 20 10 26 0 5 10 30 22
55 11 24 21 57 21 72 0 17 3 23 8 15 5 -8 10 -2 15 18 4 16 10 34 14 39 15 22
20 46 8 38 -7 -4 -3 5 9 20 12 15 27 50 34 77 7 27 17 46 22 43 7 -4 8 1 3 13
-4 10 -4 16 -1 12 4 -3 22 0 40 8 29 12 146 14 683 14 710 0 668 -4 676 60 2
18 8 35 13 39 9 6 41 76 45 101 2 8 7 18 11 21 5 4 10 18 10 32 1 14 5 23 10
20 4 -2 7 2 7 11 0 8 3 21 6 30 6 14 -69 16 -787 15 -600 -1 -801 -4 -822 -13z
m-207 -156 c0 -5 -5 -10 -11 -10 -5 0 -7 5 -4 10 3 6 8 10 11 10 2 0 4 -4 4
-10z m-93 -212 c-3 -8 -6 -5 -6 6 -1 11 2 17 5 13 3 -3 4 -12 1 -19z m263
-323 c0 -5 -5 -3 -10 5 -5 8 -10 20 -10 25 0 6 5 3 10 -5 5 -8 10 -19 10 -25z
m-417 -50 c-3 -9 -8 -14 -10 -11 -3 3 -2 9 2 15 9 16 15 13 8 -4z m1587 -393
c0 -5 -7 -9 -15 -9 -8 0 -12 4 -9 9 3 4 9 8 15 8 5 0 9 -4 9 -8z"/>
<path d="M16099 3136 c-2 -3 -23 -7 -47 -10 -50 -6 -65 -13 -56 -28 4 -7 2 -8
-4 -4 -28 17 -206 -112 -195 -141 4 -10 2 -14 -4 -10 -11 7 -56 -80 -48 -93 3
-4 0 -10 -6 -12 -6 -2 -12 -15 -12 -30 -1 -14 -5 -24 -9 -22 -10 6 -20 -34
-12 -47 4 -7 3 -9 -3 -6 -6 4 -20 -19 -33 -56 -13 -34 -33 -84 -45 -112 -13
-27 -35 -81 -50 -120 -15 -38 -40 -102 -56 -142 -16 -39 -29 -82 -29 -94 0
-12 -3 -19 -7 -16 -4 4 -22 -32 -40 -79 -34 -85 -39 -140 -16 -177 20 -34 63
-71 101 -88 42 -18 78 -19 801 -19 743 0 759 0 784 20 14 11 29 20 33 20 4 0
-1 -7 -12 -15 -14 -11 -9 -11 21 3 42 17 175 101 175 109 0 2 -5 1 -12 -3 -7
-4 -8 -3 -4 5 4 6 11 9 15 7 22 -14 60 48 121 195 29 68 53 131 54 139 1 8 15
41 29 73 15 32 27 60 27 63 0 3 9 24 19 47 39 85 71 179 64 190 -3 6 -1 7 5 3
7 -4 13 -2 13 3 2 14 4 20 20 61 7 19 12 38 11 43 -1 4 3 7 9 7 6 0 8 9 4 21
-4 13 -3 19 2 16 6 -4 22 24 37 62 35 89 31 108 -34 180 -57 64 -14 60 -847
61 -418 0 -761 -2 -764 -4z m1152 -366 c4 -8 3 -17 0 -20 -4 -3 -23 -45 -43
-95 -26 -65 -33 -93 -26 -103 8 -9 7 -11 -3 -7 -9 3 -20 -9 -31 -35 -10 -25
-12 -38 -5 -33 7 4 5 -1 -3 -11 -8 -10 -38 -75 -66 -144 l-50 -124 -512 1
c-487 2 -512 1 -513 -16 -1 -17 -2 -17 -6 0 -3 12 -15 17 -39 17 -39 0 -42 9
-19 64 8 20 12 36 8 36 -5 0 -2 4 5 9 8 5 15 20 15 34 1 14 5 23 10 20 4 -2 8
1 8 6 2 16 4 23 18 56 7 17 15 41 18 55 2 13 8 27 12 30 5 3 19 30 31 60 12
30 27 65 32 77 6 11 7 27 3 34 -5 8 -4 10 3 5 7 -4 14 4 18 21 4 15 11 34 16
40 6 7 8 18 5 25 -3 10 108 13 552 13 485 0 557 -2 562 -15z m25 -72 c0 -10
-1 -18 -3 -18 -1 0 -7 8 -12 18 -7 13 -6 19 2 19 7 0 13 -9 13 -19z m-1603
-153 c-3 -9 -8 -14 -10 -11 -3 3 -2 9 2 15 9 16 15 13 8 -4z m1497 -45 c0 -5
-5 -10 -11 -10 -5 0 -7 5 -4 10 3 6 8 10 11 10 2 0 4 -4 4 -10z m227 -432 c-3
-8 -6 -5 -6 6 -1 11 2 17 5 13 3 -3 4 -12 1 -19z m-24 -33 c-3 -9 -8 -14 -10
-11 -3 3 -2 9 2 15 9 16 15 13 8 -4z"/>
<path d="M6336 3104 c-191 -41 -385 -155 -562 -329 -157 -155 -250 -282 -352
-482 -166 -325 -241 -704 -201 -1014 32 -250 107 -417 254 -565 101 -101 167
-140 301 -174 384 -98 855 179 1169 688 47 77 127 243 122 256 -4 10 -132 66
-151 66 -3 0 -6 -5 -6 -12 0 -21 -82 -172 -148 -273 -80 -121 -245 -291 -353
-362 -164 -108 -347 -158 -499 -135 -237 34 -405 204 -483 486 -19 70 -22 106
-22 271 0 207 10 277 65 446 77 235 191 427 355 597 133 139 272 231 425 282
91 30 236 38 318 16 35 -9 67 -14 72 -11 13 8 92 213 86 224 -11 18 -145 41
-233 40 -48 0 -119 -7 -157 -15z"/>
<path d="M9927 2608 c-38 -82 -59 -139 -61 -162 0 -13 -4 -22 -8 -20 -7 5 -41
-79 -41 -102 0 -8 -4 -14 -9 -14 -5 0 -6 -10 -3 -21 5 -14 3 -19 -3 -15 -9 5
-18 -9 -27 -44 -1 -3 -10 -23 -19 -44 -11 -25 -16 -51 -12 -70 5 -26 4 -28 -5
-13 -9 16 -16 7 -45 -64 -19 -46 -32 -90 -29 -97 3 -7 0 -10 -5 -7 -5 3 -12
-7 -16 -22 -4 -15 -10 -32 -14 -38 -4 -5 -10 -18 -13 -27 -6 -16 10 -17 203
-17 204 0 210 1 210 20 0 11 4 18 9 15 5 -3 12 6 16 22 3 15 18 51 32 81 14
30 34 79 44 109 10 30 24 61 30 68 6 8 8 22 5 31 -4 10 -4 14 0 10 6 -6 48 79
58 118 3 12 18 47 47 115 12 27 22 60 23 74 0 13 4 22 7 20 10 -6 40 76 33 88
-4 6 -2 8 3 5 12 -7 25 17 16 27 -4 3 -94 6 -200 6 -153 0 -193 -3 -187 -12 6
-10 4 -10 -8 0 -13 11 -18 8 -31 -20z m338 -168 c3 -5 1 -10 -4 -10 -6 0 -11
5 -11 10 0 6 2 10 4 10 3 0 8 -4 11 -10z m-538 -372 c-3 -8 -6 -5 -6 6 -1 11
2 17 5 13 3 -3 4 -12 1 -19z m386 1 c-8 -8 -13 -7 -18 2 -5 8 -4 10 3 5 7 -4
12 -2 12 5 0 7 3 9 7 6 4 -4 2 -12 -4 -18z"/>
<path d="M12861 2608 c-6 -18 -11 -37 -10 -42 0 -5 -5 -12 -11 -16 -7 -4 -13
-19 -13 -33 -1 -14 -5 -23 -8 -21 -9 5 -41 -85 -41 -113 0 -13 -4 -21 -8 -18
-8 5 -56 -112 -53 -132 0 -7 -2 -11 -6 -9 -4 3 -15 -19 -25 -47 -10 -29 -28
-74 -41 -102 -30 -67 -39 -97 -36 -115 2 -8 0 -12 -5 -8 -6 7 -54 -94 -54
-114 0 -13 48 -9 53 5 4 10 6 10 6 0 1 -10 44 -13 180 -13 166 0 180 1 186 19
3 10 3 27 -1 37 -4 14 -3 16 4 5 8 -11 11 -9 17 10 4 13 16 44 27 69 11 25 26
60 34 78 8 18 12 38 9 43 -4 5 -1 9 5 9 7 0 9 7 6 16 -3 8 -2 13 3 9 5 -3 13
9 16 27 4 18 15 44 24 57 13 21 14 24 1 16 -9 -5 -8 0 4 13 11 12 15 22 10 22
-5 0 -4 4 1 8 11 7 42 76 47 102 2 8 6 17 9 20 3 3 21 43 39 90 18 47 39 99
46 117 8 17 14 34 14 37 0 3 -94 6 -209 6 l-209 0 -11 -32z m389 -52 c0 -2 -8
-10 -17 -17 -16 -13 -17 -12 -4 4 13 16 21 21 21 13z m-173 -388 c-3 -8 -6 -5
-6 6 -1 11 2 17 5 13 3 -3 4 -12 1 -19z"/>
<path d="M6300 2586 c-128 -23 -255 -101 -375 -227 -189 -199 -291 -443 -302
-720 -4 -99 -2 -144 12 -205 36 -161 118 -281 237 -344 55 -30 74 -35 155 -38
168 -8 293 50 453 208 216 213 330 484 330 785 0 368 -215 596 -510 541z m135
-229 c60 -17 147 -107 176 -182 33 -88 39 -263 11 -373 -57 -226 -198 -413
-372 -496 -58 -28 -75 -31 -156 -31 -83 0 -94 2 -139 30 -60 37 -105 95 -137
172 -20 51 -23 75 -23 193 0 111 4 147 23 205 79 254 249 443 438 489 60 15
108 13 179 -7z"/>
<path d="M6184 2170 c-150 -75 -258 -265 -258 -455 0 -131 39 -212 126 -256
105 -54 260 16 357 160 212 317 59 694 -225 551z"/>
</g>
</svg>
